
<svg version="1.0" xmlns="http://www.w3.org/2000/svg"
 width="497.000000pt" height="502.000000pt" viewBox="0 0 497.000000 502.000000"
 preserveAspectRatio="xMidYMid meet">

<g transform="translate(0.000000,502.000000) scale(0.100000,-0.100000)"
fill="#000000" stroke="none">
<path d="M519 4084 c-54 -22 -64 -50 -63 -173 2 -110 22 -213 85 -430 44 -152
158 -480 191 -548 9 -17 3 -39 -27 -115 -96 -236 -136 -447 -136 -717 0 -237
30 -420 102 -634 50 -146 189 -401 292 -537 75 -98 246 -264 362 -353 5 -4 24
-19 40 -32 17 -14 33 -25 37 -25 4 0 13 -6 20 -12 18 -17 46 -35 78 -50 14 -7
27 -15 30 -18 3 -3 34 -19 70 -37 130 -63 197 -93 209 -93 7 0 27 -6 44 -14
186 -85 649 -127 902 -83 133 23 206 38 230 47 11 5 57 20 102 34 45 14 90 29
100 35 10 5 29 13 43 19 109 46 142 64 267 140 225 137 508 429 624 645 110
205 177 372 212 532 8 39 21 95 27 125 17 80 25 428 11 530 -25 193 -54 304
-130 507 l-30 82 24 68 c13 37 40 113 60 168 41 112 78 223 102 305 9 30 19
66 24 80 4 14 15 54 23 90 56 238 66 372 31 424 -59 88 -218 71 -640 -68 -44
-15 -84 -28 -90 -31 -5 -2 -82 -34 -170 -71 -88 -36 -176 -68 -195 -71 -26 -3
-57 6 -120 35 -444 204 -984 226 -1436 56 -54 -20 -131 -52 -171 -70 l-72 -34
-187 76 c-103 41 -221 86 -263 100 -42 14 -85 30 -96 35 -37 16 -229 68 -314
83 -102 20 -155 19 -202 0z m573 -1997 c20 -17 51 -43 69 -57 18 -14 49 -38
70 -55 60 -49 99 -80 189 -149 47 -37 90 -70 95 -74 6 -4 42 -32 80 -62 39
-30 75 -59 81 -65 23 -20 61 -51 129 -105 39 -30 75 -59 81 -65 6 -5 22 -17
34 -25 13 -8 36 -27 51 -42 15 -14 36 -29 46 -32 27 -9 45 -42 30 -54 -30 -25
-187 -54 -312 -59 -112 -5 -143 -2 -215 16 -101 25 -168 57 -231 108 -51 41
-149 166 -149 189 0 8 -4 14 -9 14 -5 0 -12 13 -16 30 -3 16 -15 46 -25 67
-17 35 -29 86 -50 204 -7 39 -14 182 -11 232 1 25 21 21 63 -16z m2818 -49 c0
-75 -16 -165 -50 -298 -22 -84 -84 -212 -134 -275 -162 -207 -429 -271 -757
-181 -98 27 -129 41 -129 59 0 7 25 28 55 46 30 19 55 39 55 43 0 4 6 8 13 8
8 0 23 8 35 18 11 9 28 23 39 30 51 35 160 112 170 122 7 6 34 25 60 42 27 18
53 37 60 43 7 5 18 15 25 20 15 12 182 126 206 140 9 6 21 15 28 20 6 6 22 17
34 25 44 30 145 103 150 109 13 16 116 81 127 81 9 0 13 -16 13 -52z"/>
</g>
</svg>
